<?xml version="1.0" encoding="utf-8"?>
<!-- Generator: Adobe Illustrator 28.3.0, SVG Export Plug-In . SVG Version: 6.00 Build 0)  -->
<svg version="1.1" id="Layer_1" xmlns="http://www.w3.org/2000/svg" xmlns:xlink="http://www.w3.org/1999/xlink" x="0px" y="0px"
	 viewBox="0 0 1500 600" style="enable-background:new 0 0 1500 600;" xml:space="preserve">
<style type="text/css">
	.st0{fill:#069DDF;}
	.st1{fill-rule:evenodd;clip-rule:evenodd;fill:#F7A80E;}
	.st2{fill:#F7A80E;}
	.st3{fill-rule:evenodd;clip-rule:evenodd;fill:#FEFEFE;}
	.st4{fill-rule:evenodd;clip-rule:evenodd;fill:#069DDF;}
</style>
<g>
	<polygon class="st0" points="1286.04,292.83 1434.7,535.26 1393.71,535.26 1263.73,323.06 1200.52,431.22 1160.34,431.22 
		1245.06,292.83 1092.12,47.09 1132.7,47.09 1267.37,262.6 1330.99,154.04 1371.57,154.04 	"/>
	<path class="st1" d="M1140.78,431.22l83.74-139.36L1073.77,47.09h8.49l149.54,242.83c0.65,1.13,0.73,2.59,0,3.72l-82.61,137.58
		H1140.78z"/>
	<polygon class="st0" points="224.68,157.59 224.68,212.08 110.94,212.08 110.94,270.93 196.06,270.93 196.06,323.79 110.94,323.79 
		110.94,436.72 42.96,436.72 42.96,157.59 	"/>
	<path class="st0" d="M659.41,436.72l-58.04-105.33h-16.25v105.33h-68.06V157.59H631.2c21.99,0,40.74,3.88,56.26,11.56
		c15.52,7.68,27.16,18.19,34.84,31.61c7.68,13.34,11.48,28.29,11.48,44.7c0,18.59-5.17,35.16-15.68,49.71
		c-10.43,14.55-25.95,24.9-46.32,31.04l64.43,110.5H659.41z M585.12,283.29h42.11c12.45,0,21.83-3.07,28.05-9.22
		c6.22-6.06,9.3-14.71,9.3-25.79c0-10.67-3.07-19-9.3-25.06c-6.22-6.14-15.6-9.13-28.05-9.13h-42.11V283.29z"/>
	<polygon class="st0" points="955.91,152.83 955.91,207.31 881.95,207.31 881.95,431.95 813.89,431.95 813.89,207.31 739.92,207.31 
		739.92,152.83 	"/>
	<path class="st1" d="M362.66,168.02c-25.38,1.7-49.79,10.83-69.52,25.79c-77.04,57.47-70.89,177.68,25.87,230.46
		c0.4,0.24,0.48,0.65,0.32,1.05c-0.16,0.32-0.57,0.4-0.97,0.32c-102.01-42.44-123.52-175.17-33.63-242.99
		c23.12-17.46,50.36-27,77.92-29.1c0.24,0,0.4-0.08,0.57-0.32s0.16-0.4,0.08-0.65l-4.12-10.51c-0.08-0.32,0-0.73,0.24-0.89
		c0.32-0.24,0.65-0.16,0.89,0l23.85,19.24c0.24,0.08,0.32,0.32,0.32,0.57c0,0.24-0.08,0.4-0.32,0.57l-23.85,19.16
		c-0.24,0.24-0.57,0.24-0.89,0c-0.24-0.16-0.32-0.49-0.24-0.81l4.2-10.91c0.16-0.24,0.08-0.49-0.08-0.73
		C363.15,168.1,362.91,168.02,362.66,168.02L362.66,168.02z"/>
	<path class="st1" d="M314.49,265.59l-8.57,1.78v21.66h-15.28v-19.24l-19.72,5.01c0,0,0,14.23,0,18.27c0,4.04,0.32,7.52,5.34,16.49
		h41.39c0,0,1.54-3.15,3.4-4.53c0,0-6.55-10.1-6.55-18.67V265.59z M371.39,179.02c66.04,0.16,119.47,53.67,119.47,119.72
		c0,28.13-9.7,54-25.95,74.37l0.65-0.81v-48.1c0-4.61,4.53-10.43-1.62-10.43c-1.05,0-38.8,0-38.8,0s-0.48,4.45-3.56,7.11v8.65
		c0,0,9.13-0.89,13.5,4.04c4.45,5.01,5.66,8.89,5.66,12.61v49.96c-7.19,5.17-14.95,9.54-23.2,13.01v-90.7c0,0,3.07-1.46,3.07-5.66
		c0-4.28-3.72-5.98-5.66-5.98h-43.81h-43.81c-1.94,0-5.66,1.7-5.66,5.98c0,4.2,3.07,5.66,3.07,5.66v90.7
		c-8.25-3.48-16.01-7.84-23.2-13.01v-49.96c0-3.72,1.21-7.6,5.66-12.61c4.37-4.93,13.5-4.04,13.5-4.04v-8.65
		c-3.07-2.67-3.56-7.11-3.56-7.11s-37.75,0-38.88,0c-6.06,0-1.54,5.82-1.54,10.43v48.1l0.65,0.81
		c-16.25-20.37-25.95-46.24-25.95-74.37c0-59.33,43.33-109.61,102.01-118.34c0.32-0.08,0.57,0.08,0.73,0.24
		c0.16,0.24,0.16,0.49,0.08,0.73l-4.2,10.91c-0.16,0.32-0.08,0.65,0.24,0.81c0.24,0.24,0.65,0.24,0.89,0l17.3-13.9
		c0.08-0.08,0.24-0.16,0.4-0.16C369.7,179.02,370.59,179.02,371.39,179.02L371.39,179.02z M389.99,416.99
		c-6.14,0.97-12.37,1.46-18.83,1.46c-6.39,0-12.69-0.48-18.83-1.46v-74.77c0-24.01,37.67-24.01,37.67,0V416.99z M427.82,265.59
		l8.57,1.78v21.66h15.28v-19.24l19.72,5.01c0,0,0,14.23,0,18.27c0,4.04-0.32,7.52-5.34,16.49h-41.39c0,0-1.54-3.15-3.4-4.53
		c0,0,6.55-10.1,6.55-18.67V265.59z M423.21,264.13l-21.58-5.66v21.18h-17.06v-23.93l-13.42-2.99l-13.42,2.99v23.93h-17.06v-21.18
		l-21.58,5.66v23.52c0,6.14,5.74,14.55,5.74,14.55h46.32h46.32c0,0,5.74-8.41,5.74-14.55V264.13z"/>
	<path class="st1" d="M980.73,396.38h160.62l-20.94,34.84H980.73V396.38z M980.73,152.83h137.74l21.42,34.84H980.73V152.83z
		 M980.73,274.64h212.76l10.59,17.22l-10.51,17.54H980.73V274.64z"/>
	<path class="st1" d="M1390.88,154.04l-83.5,138.87l149.3,242.34h-8.49l-148.09-240.48c-0.65-1.05-0.73-2.51,0-3.72l82.37-137.02
		H1390.88z"/>
	<path class="st2" d="M371.15,552.55c-7.52,0-14.31-1.78-20.37-5.25c-6.06-3.56-10.75-8.49-14.23-14.87
		c-3.4-6.39-5.09-13.5-5.09-21.5c0-8.08,1.7-15.28,5.09-21.58c3.48-6.39,8.16-11.32,14.23-14.79c6.06-3.56,12.85-5.34,20.37-5.34
		c7.52,0,14.31,1.78,20.37,5.34c6.06,3.48,10.75,8.41,14.23,14.79c3.4,6.31,5.09,13.5,5.09,21.58c0,8-1.7,15.12-5.09,21.5
		c-3.48,6.39-8.16,11.32-14.23,14.87C385.46,550.78,378.67,552.55,371.15,552.55L371.15,552.55z M371.15,547.95
		c6.47,0,12.29-1.54,17.46-4.53c5.17-3.07,9.3-7.36,12.29-12.93c2.99-5.58,4.45-12.13,4.45-19.56c0-7.52-1.46-14.07-4.45-19.72
		c-2.99-5.58-7.11-9.86-12.29-12.85c-5.17-3.07-10.99-4.61-17.46-4.61s-12.29,1.54-17.46,4.61c-5.17,2.99-9.3,7.28-12.37,12.85
		c-2.99,5.66-4.53,12.21-4.53,19.72c0,7.44,1.54,13.98,4.53,19.56c3.07,5.58,7.19,9.86,12.37,12.93
		C358.87,546.41,364.69,547.95,371.15,547.95L371.15,547.95z"/>
	<polygon class="st2" points="525.47,469.94 494.34,551.66 488.52,551.66 457.4,469.94 463.14,469.94 491.43,545.44 519.89,469.94 	
		"/>
	<polygon class="st2" points="577.28,474.39 577.28,508.5 609.94,508.5 609.94,512.86 577.28,512.86 577.28,547.22 613.41,547.22 
		613.41,551.66 572.11,551.66 572.11,469.94 613.41,469.94 613.41,474.39 	"/>
	<path class="st2" d="M704.11,551.66l-20.94-34.84h-0.48h-17.46v34.84h-5.25v-81.72h22.47c9.05,0,15.84,2.1,20.45,6.39
		c4.53,4.28,6.79,9.94,6.79,16.98c0,6.31-1.78,11.48-5.34,15.6c-3.48,4.04-8.65,6.55-15.36,7.44l21.42,35.32H704.11z M665.23,512.38
		h17.46c7.19,0,12.61-1.7,16.17-5.17c3.56-3.56,5.34-8.16,5.34-13.9c0-12.45-7.28-18.67-21.74-18.67h-17.22V512.38z"/>
	<path class="st2" d="M783.81,552.23c-5.25,0-9.86-0.97-13.82-2.83c-3.96-1.86-7.03-4.37-9.3-7.52c-2.18-3.23-3.48-6.71-3.72-10.59
		h5.42c0.65,4.2,2.67,8,5.98,11.4c3.4,3.31,8.57,5.01,15.44,5.01c4.04,0,7.6-0.81,10.59-2.26c2.91-1.46,5.25-3.48,6.87-6.06
		c1.62-2.51,2.43-5.34,2.43-8.49c0-3.96-0.89-7.11-2.83-9.38c-1.86-2.34-4.28-4.12-7.11-5.25c-2.83-1.21-6.63-2.43-11.48-3.72
		c-5.25-1.45-9.46-2.83-12.69-4.2c-3.23-1.37-5.98-3.56-8.16-6.47c-2.18-2.91-3.31-6.87-3.31-11.96c0-3.88,1.05-7.44,3.07-10.59
		c2.1-3.23,5.01-5.82,8.81-7.68c3.8-1.86,8.16-2.75,13.18-2.75c7.19,0,13.01,1.78,17.46,5.34c4.37,3.56,7.03,7.92,7.84,13.18h-5.58
		c-0.4-2.1-1.45-4.28-3.07-6.47c-1.54-2.1-3.8-3.96-6.71-5.34c-2.91-1.46-6.39-2.18-10.43-2.18c-5.42,0-10.02,1.46-13.74,4.45
		c-3.72,2.99-5.58,6.95-5.58,11.96c0,3.96,0.97,7.11,2.91,9.46c1.94,2.43,4.28,4.2,7.11,5.42c2.83,1.13,6.71,2.43,11.48,3.64
		c5.34,1.46,9.62,2.91,12.77,4.2c3.15,1.37,5.82,3.56,8,6.47c2.26,2.91,3.31,6.79,3.31,11.8c0,3.64-0.97,7.11-2.91,10.35
		c-1.94,3.23-4.77,5.9-8.57,8C793.76,551.18,789.15,552.23,783.81,552.23L783.81,552.23z"/>
	<path class="st2" d="M1106.51,552.47c-5.34,0-9.94-0.97-13.9-2.83c-3.96-1.86-7.03-4.37-9.22-7.52c-2.26-3.23-3.48-6.71-3.8-10.59
		h5.5c0.57,4.2,2.59,8,5.98,11.4c3.4,3.31,8.49,5.01,15.44,5.01c4.04,0,7.52-0.73,10.51-2.26c2.99-1.46,5.25-3.48,6.95-6.06
		c1.62-2.51,2.43-5.34,2.43-8.49c0-3.96-0.97-7.11-2.83-9.38c-1.94-2.34-4.28-4.12-7.11-5.25c-2.83-1.21-6.71-2.43-11.48-3.72
		c-5.25-1.37-9.54-2.83-12.77-4.2c-3.23-1.37-5.9-3.56-8.16-6.47c-2.18-2.91-3.31-6.87-3.31-11.96c0-3.88,1.05-7.36,3.15-10.59
		c2.02-3.23,4.93-5.82,8.73-7.68c3.8-1.86,8.25-2.75,13.18-2.75c7.19,0,13.01,1.78,17.46,5.34c4.45,3.56,7.03,7.92,7.92,13.18h-5.58
		c-0.48-2.1-1.54-4.28-3.07-6.39c-1.62-2.18-3.88-4.04-6.79-5.42c-2.91-1.46-6.39-2.18-10.43-2.18c-5.42,0-10.02,1.46-13.74,4.45
		c-3.72,2.99-5.58,7.03-5.58,11.96c0,3.96,0.97,7.11,2.91,9.46c1.94,2.43,4.37,4.2,7.19,5.42c2.83,1.13,6.63,2.43,11.48,3.64
		c5.34,1.46,9.54,2.91,12.69,4.28c3.15,1.29,5.82,3.48,8.08,6.39c2.18,2.91,3.31,6.79,3.31,11.8c0,3.64-0.97,7.11-2.91,10.35
		s-4.85,5.9-8.57,8C1116.37,551.42,1111.84,552.47,1106.51,552.47L1106.51,552.47z"/>
	<polygon class="st2" points="860.77,474.39 860.77,508.5 893.35,508.5 893.35,512.86 860.77,512.86 860.77,547.22 896.9,547.22 
		896.9,551.66 855.52,551.66 855.52,469.94 896.9,469.94 896.9,474.39 	"/>
	<polygon class="st2" points="1022.28,550.69 991.08,468.97 985.26,468.97 954.21,550.69 959.87,550.69 988.17,475.19 
		1016.7,550.69 	"/>
	<path class="st3" d="M943.95,527.74c14.55-19.32,31.36-16.73,48.91-14.07c12.21,1.86,24.82,3.8,37.02-2.18
		c1.05-0.48,2.34-0.08,2.91,1.05c0.4,0.81,0.24,1.78-0.32,2.43c-12.85,14.39-26.19,12.04-40.98,9.46
		c-13.5-2.34-28.29-4.93-44.62,6.47c-0.97,0.73-2.34,0.49-2.99-0.49C943.22,529.52,943.3,528.47,943.95,527.74L943.95,527.74z"/>
	<path class="st4" d="M945.65,529.11c23.93-31.85,55.05-0.97,85.2-15.6C1007,540.35,980,505.02,945.65,529.11L945.65,529.11z"/>
</g>
</svg>
